<?xml version="1.0" encoding="UTF-8"?>
<!DOCTYPE svg PUBLIC "-//W3C//DTD SVG 1.1//EN" "http://www.w3.org/Graphics/SVG/1.1/DTD/svg11.dtd">
<!-- Creator: CorelDRAW 2020 (64-Bit) -->
<svg xmlns="http://www.w3.org/2000/svg" xml:space="preserve" width="211px" height="48px" version="1.1" style="shape-rendering:geometricPrecision; text-rendering:geometricPrecision; image-rendering:optimizeQuality; fill-rule:evenodd; clip-rule:evenodd"
viewBox="0 0 211 48"
 xmlns:xlink="http://www.w3.org/1999/xlink"
 xmlns:xodm="http://www.corel.com/coreldraw/odm/2003">
 <defs>
  <style type="text/css">
   <![CDATA[
    .fil0 {fill:white;fill-rule:nonzero}
   ]]>
  </style>
 </defs>
 <g id="Capa_x0020_1">
  <metadata id="CorelCorpID_0Corel-Layer"/>
  <g id="_2314619820944">
   <g id="_1725615333680">
    <path class="fil0" d="M79.34 6.82l-25.86 0c-0.21,0 -0.32,0.11 -0.32,0.31l0 19.75c0,0.21 0.11,0.31 0.32,0.31l25.86 0 0 5.9 -25.86 0c-1.73,0 -3.2,-0.61 -4.4,-1.81 -1.21,-1.21 -1.81,-2.68 -1.81,-4.4l0 -19.75c0,-1.72 0.6,-3.19 1.81,-4.39 1.2,-1.21 2.67,-1.81 4.4,-1.81l25.86 0 0 5.89zm30.77 20.06l0 -25.95 5.94 0 0 25.95c0,1.72 -0.61,3.19 -1.83,4.4 -1.22,1.2 -2.68,1.81 -4.37,1.81l-19.75 0c-1.72,0 -3.19,-0.61 -4.4,-1.81 -1.2,-1.21 -1.81,-2.68 -1.81,-4.4l0 -25.95 5.9 0 0 25.95c0,0.21 0.1,0.31 0.31,0.31l19.75 0c0.17,0 0.26,-0.1 0.26,-0.31zm10.9 6.21l0 -32.16 5.9 0 0 32.16 -5.9 0zm41.72 -25.96l0 2.46 -5.94 0 0 -2.46c0,-0.2 -0.09,-0.31 -0.27,-0.31l-19.74 0c-0.21,0 -0.31,0.11 -0.31,0.31l0 6.61c0,0.21 0.1,0.32 0.31,0.32l19.74 0c1.7,0 3.16,0.6 4.38,1.81 1.22,1.2 1.83,2.67 1.83,4.4l0 6.61c0,1.72 -0.61,3.19 -1.83,4.4 -1.22,1.2 -2.68,1.81 -4.38,1.81l-19.74 0c-1.73,0 -3.19,-0.61 -4.4,-1.81 -1.21,-1.21 -1.81,-2.68 -1.81,-4.4l0 -2.46 5.9 0 0 2.46c0,0.21 0.1,0.31 0.31,0.31l19.74 0c0.18,0 0.27,-0.1 0.27,-0.31l0 -6.61c0,-0.21 -0.09,-0.32 -0.27,-0.32l-19.74 0c-1.73,0 -3.19,-0.6 -4.4,-1.81 -1.21,-1.2 -1.81,-2.67 -1.81,-4.4l0 -6.61c0,-1.72 0.6,-3.19 1.81,-4.39 1.21,-1.21 2.67,-1.81 4.4,-1.81l19.74 0c1.7,0 3.16,0.6 4.38,1.81 1.22,1.2 1.83,2.67 1.83,4.39z"/>
    <path class="fil0" d="M47.75 47.07l0 -9.58 1.75 0 0 9.58 -1.75 0zm10.72 -2.55l0 -7.03 1.77 0 0 9.58 -1.91 0 -5.91 -7.02 0 7.02 -1.76 0 0 -9.58 1.92 0 5.89 7.03zm3.29 -7.03l7.72 0c0.51,0 0.95,0.18 1.31,0.54 0.37,0.36 0.55,0.8 0.55,1.31l0 5.88c0,0.52 -0.18,0.95 -0.55,1.31 -0.36,0.36 -0.8,0.54 -1.31,0.54l-7.72 0 0 -9.58zm7.81 7.73l0 -5.88c0,-0.06 -0.03,-0.09 -0.09,-0.09l-5.87 0c-0.06,0 -0.09,0.03 -0.09,0.09l0 5.88c0,0.06 0.03,0.1 0.09,0.1l5.87 0c0.06,0 0.09,-0.04 0.09,-0.1zm11.05 0l0 -7.73 1.76 0 0 7.73c0,0.52 -0.18,0.95 -0.54,1.31 -0.36,0.36 -0.8,0.54 -1.31,0.54l-5.88 0c-0.51,0 -0.95,-0.18 -1.31,-0.54 -0.36,-0.36 -0.54,-0.79 -0.54,-1.31l0 -7.73 1.76 0 0 7.73c0,0.06 0.03,0.1 0.09,0.1l5.88 0c0.06,0 0.09,-0.04 0.09,-0.1zm8.63 -3.58l3.47 -4.15 1.93 0 0 9.58 -1.77 0 0 -7.02 -3.63 4.32 -3.64 -4.32 0 7.02 -1.76 0 0 -9.58 1.91 0 3.49 4.15zm15.78 -4.15l0 1.76 -7.04 0 0 2.15 5.67 0 0 1.76 -5.67 0 0 2.16 7.04 0 0 1.75 -8.81 0 0 -9.58 8.81 0zm9.17 7.03l0 -7.03 1.77 0 0 9.58 -1.91 0 -5.91 -7.02 0 7.02 -1.76 0 0 -9.58 1.92 0 5.89 7.03zm2.78 -7.03l9.58 0 0 1.76 -3.89 0 0 7.82 -1.78 0 0 -7.82 -3.91 0 0 -1.76zm12.46 0l5.87 0c0.51,0 0.95,0.18 1.31,0.54 0.37,0.36 0.55,0.8 0.55,1.31l0 7.73 -1.77 0 0 -3.22 -6.06 0 0 3.22 -1.75 0 0 -7.73c0,-0.51 0.18,-0.95 0.54,-1.31 0.36,-0.36 0.79,-0.54 1.31,-0.54zm-0.1 4.61l6.06 0 0 -2.76c0,-0.06 -0.03,-0.09 -0.09,-0.09l-5.87 0c-0.06,0 -0.1,0.03 -0.1,0.09l0 2.76zm18.91 -2.75l0 2.59c0,0.5 -0.18,0.94 -0.54,1.3 -0.37,0.36 -0.81,0.54 -1.32,0.54l-0.52 0 2.38 2.84 0 0.45 -1.91 0 -2.77 -3.29 -3.1 0 -0.04 0 0 3.29 -1.76 0 0 -9.57 7.72 0c0.51,0 0.95,0.19 1.32,0.55 0.36,0.36 0.54,0.8 0.54,1.3zm-7.73 2.68l5.87 0c0.06,0 0.09,-0.03 0.09,-0.09l0 -2.59c0,-0.06 -0.03,-0.09 -0.09,-0.09l-5.87 0c-0.06,0 -0.09,0.03 -0.09,0.09l0 2.59c0,0.06 0.03,0.09 0.09,0.09zm9.16 5.04l0 -9.58 1.75 0 0 9.58 -1.75 0zm4.79 -9.58l5.87 0c0.51,0 0.95,0.18 1.31,0.54 0.37,0.36 0.55,0.8 0.55,1.31l0 7.73 -1.77 0 0 -3.22 -6.05 0 0 3.22 -1.76 0 0 -7.73c0,-0.51 0.18,-0.95 0.54,-1.31 0.36,-0.36 0.79,-0.54 1.31,-0.54zm-0.09 4.61l6.05 0 0 -2.76c0,-0.06 -0.03,-0.09 -0.09,-0.09l-5.87 0c-0.06,0 -0.09,0.03 -0.09,0.09l0 2.76z"/>
   </g>
  </g>
 </g>
</svg>
