<?xml version="1.0" encoding="UTF-8"?>
<!DOCTYPE svg PUBLIC "-//W3C//DTD SVG 1.1//EN" "http://www.w3.org/Graphics/SVG/1.1/DTD/svg11.dtd">
<!-- Creator: CorelDRAW 2020 (64-Bit) -->
<svg xmlns="http://www.w3.org/2000/svg" xml:space="preserve" width="31mm" height="12mm" version="1.1" style="shape-rendering:geometricPrecision; text-rendering:geometricPrecision; image-rendering:optimizeQuality; fill-rule:evenodd; clip-rule:evenodd"
viewBox="0 0 3100 1200"
 xmlns:xlink="http://www.w3.org/1999/xlink"
 xmlns:xodm="http://www.corel.com/coreldraw/odm/2003">
 <defs>
  <style type="text/css">
   <![CDATA[
    .fil0 {fill:#FEFEFE}
   ]]>
  </style>
 </defs>
 <g id="Capa_x0020_1">
  <metadata id="CorelCorpID_0Corel-Layer"/>
  <path class="fil0" d="M81.48 1042l2720.26 0.08 -8.46 -0.07 209.49 -881.32 -2677.31 -0.51 -243.98 881.82zm30.93 -24.1l2663.72 0.1c3,-4.74 191.11,-781.2 198.67,-832.79l-2625.56 -1.01 -236.83 833.7z"/>
  <path class="fil0" d="M272.02 920.64l2397.2 0.08 163.45 -637.84 -2397.5 -0.24 -163.15 638zm2044.3 -240.11c-3,39.82 -103.31,53.42 -128.55,7.45l-184.75 -0.18c13.91,82.25 86.19,123.77 174.01,135.4 119.19,15.78 290.76,3.06 320.85,-132.13 34.82,-156.44 -274.67,-116.62 -313.52,-146.52 7.66,-32.73 63.74,-42.73 98.99,-30.29 20.73,7.32 17.79,12.98 28.66,20.47 11.22,7.73 159.63,3.52 185.58,3.52 -3.57,-38.2 -32.09,-74.79 -59.53,-94.8 -88.97,-64.84 -297.2,-57.15 -374.09,-1.18 -58.82,42.82 -100.73,145.04 -9,190.47 88.34,43.76 237.49,19.43 261.35,47.79zm-558.07 138.91l173.64 0 0 -413.83 -173.64 0 0 413.83zm-70.07 -411.43l-172.76 -0.94c0,67.26 0.37,134.25 0.02,201.12 -0.36,68.27 -21.98,109.7 -92.89,108.86 -70.66,-0.84 -89.27,-43.99 -89.36,-111.75 -0.05,-37.37 4.9,-172.06 -1.6,-198.24l-170.31 0.06c-5.65,41.26 -0.81,124.03 -0.81,169.23 0,54.69 -0.17,102.31 22.34,147.18 39.03,77.85 124.94,103.84 239.75,104.06 111.8,0.22 199.52,-23.52 241.24,-99.69 36.26,-66.22 24.38,-232.66 24.38,-319.89zm-577.08 261.14l-181.55 0c-20.05,38.33 -72.34,56.36 -131.44,45.47 -112.33,-20.7 -112.91,-180.9 -1.26,-202.72 25.36,-4.96 59.73,-4.04 83.48,4.66 40.57,14.85 43.67,37.81 53.16,40.34l177.61 0c-24.87,-137.28 -194,-163.4 -313.68,-157.29 -144.57,7.38 -256.6,65.13 -256.14,214.36 0.77,250.52 342.37,235.66 460.19,183.66 48.77,-21.53 99.66,-66.83 109.63,-128.48z"/>
 </g>
</svg>
