<?xml version="1.0" encoding="UTF-8"?>
<!DOCTYPE svg PUBLIC "-//W3C//DTD SVG 1.1//EN" "http://www.w3.org/Graphics/SVG/1.1/DTD/svg11.dtd">
<!-- Creator: CorelDRAW 2020 (64-Bit) -->
<svg xmlns="http://www.w3.org/2000/svg" xml:space="preserve" width="53.594mm" height="12.192mm" version="1.1" style="shape-rendering:geometricPrecision; text-rendering:geometricPrecision; image-rendering:optimizeQuality; fill-rule:evenodd; clip-rule:evenodd"
viewBox="0 0 5359.4 1219.2"
 xmlns:xlink="http://www.w3.org/1999/xlink"
 xmlns:xodm="http://www.corel.com/coreldraw/odm/2003">
 <defs>
  <style type="text/css">
   <![CDATA[
    .fil0 {fill:black;fill-rule:nonzero}
   ]]>
  </style>
 </defs>
 <g id="Capa_x0020_1">
  <metadata id="CorelCorpID_0Corel-Layer"/>
  <g id="_1725615333680">
   <path class="fil0" d="M2009.08 169.19l-663.06 0c-5.34,0 -8.02,2.67 -8.02,8.01l0 506.18c0,5.34 2.68,8.01 8.02,8.01l663.06 0 0 151.17 -663.06 0c-44.28,0 -81.88,-15.46 -112.8,-46.38 -30.92,-30.92 -46.38,-68.53 -46.38,-112.8l0 -506.18c0,-44.27 15.46,-81.88 46.38,-112.79 30.92,-30.93 68.52,-46.39 112.8,-46.39l663.06 0 0 151.17zm789.03 514.19l0 -665.36 152.31 0 0 665.36c0,44.27 -15.65,81.88 -46.95,112.8 -31.3,30.92 -68.71,46.38 -112.23,46.38l-506.17 0c-44.28,0 -81.88,-15.46 -112.8,-46.38 -30.92,-30.92 -46.38,-68.53 -46.38,-112.8l0 -665.36 151.16 0 0 665.36c0,5.34 2.68,8.01 8.02,8.01l506.17 0c4.59,0 6.87,-2.67 6.87,-8.01zm279.43 159.18l0 -824.54 151.17 0 0 824.54 -151.17 0zm1069.61 -665.36l0 62.99 -152.32 0 0 -62.99c0,-5.34 -2.29,-8.01 -6.86,-8.01l-506.18 0c-5.34,0 -8.01,2.67 -8.01,8.01l0 169.49c0,5.35 2.67,8.02 8.01,8.02l506.18 0c43.51,0 80.92,15.46 112.22,46.38 31.3,30.92 46.96,68.52 46.96,112.8l0 169.49c0,44.27 -15.66,81.88 -46.96,112.8 -31.3,30.92 -68.71,46.38 -112.22,46.38l-506.18 0c-44.27,0 -81.88,-15.46 -112.8,-46.38 -30.92,-30.92 -46.38,-68.53 -46.38,-112.8l0 -62.99 151.17 0 0 62.99c0,5.34 2.67,8.01 8.01,8.01l506.18 0c4.57,0 6.86,-2.67 6.86,-8.01l0 -169.49c0,-5.35 -2.29,-8.02 -6.86,-8.02l-506.18 0c-44.27,0 -81.88,-15.46 -112.8,-46.38 -30.92,-30.92 -46.38,-68.52 -46.38,-112.8l0 -169.49c0,-44.27 15.46,-81.88 46.38,-112.79 30.92,-30.93 68.53,-46.39 112.8,-46.39l506.18 0c43.51,0 80.92,15.46 112.22,46.39 31.3,30.91 46.96,68.52 46.96,112.79z"/>
   <path class="fil0" d="M1199.12 1201.15l0 -245.64 45.03 0 0 245.64 -45.03 0zm274.98 -65.5l0 -180.14 45.38 0 0 245.64 -49.13 0 -151.48 -180.14 0 180.14 -45.03 0 0 -245.64 49.13 0 151.13 180.14zm84.27 -180.14l197.88 0c13.19,0 24.45,4.6 33.78,13.82 9.32,9.21 13.98,20.41 13.98,33.6l0 150.8c0,13.19 -4.66,24.39 -13.98,33.6 -9.33,9.21 -20.59,13.82 -33.78,13.82l-197.88 0 0 -245.64zm200.27 198.22l0 -150.8c0,-1.59 -0.8,-2.39 -2.39,-2.39l-150.46 0c-1.59,0 -2.39,0.8 -2.39,2.39l0 150.8c0,1.59 0.8,2.39 2.39,2.39l150.46 0c1.59,0 2.39,-0.8 2.39,-2.39zm283.17 0l0 -198.22 45.37 0 0 198.22c0,13.19 -4.66,24.39 -13.98,33.6 -9.33,9.21 -20.47,13.82 -33.44,13.82l-150.79 0c-13.19,0 -24.4,-4.61 -33.61,-13.82 -9.21,-9.21 -13.82,-20.41 -13.82,-33.6l0 -198.22 45.03 0 0 198.22c0,1.59 0.81,2.39 2.4,2.39l150.79 0c1.37,0 2.05,-0.8 2.05,-2.39zm221.43 -91.77l89.04 -106.45 49.47 0 0 245.64 -45.38 0 0 -180.14 -93.13 110.89 -93.49 -110.89 0 180.14 -45.03 0 0 -245.64 49.13 0 89.39 106.45zm404.62 -106.45l0 45.03 -180.48 0 0 55.28 145.34 0 0 45.03 -145.34 0 0 55.27 180.48 0 0 45.03 -225.85 0 0 -245.64 225.85 0zm235.07 180.14l0 -180.14 45.38 0 0 245.64 -49.13 0 -151.48 -180.14 0 180.14 -45.04 0 0 -245.64 49.13 0 151.14 180.14zm71.3 -180.14l245.64 0 0 45.03 -99.96 0 0 200.61 -45.37 0 0 -200.61 -100.31 0 0 -45.03zm319.34 0l150.46 0c13.19,0 24.45,4.6 33.77,13.82 9.32,9.21 13.99,20.41 13.99,33.6l0 198.22 -45.38 0 0 -82.56 -155.23 0 0 82.56 -45.04 0 0 -198.22c0,-13.19 4.61,-24.39 13.82,-33.6 9.21,-9.22 20.41,-13.82 33.61,-13.82zm-2.39 118.05l155.23 0 0 -70.63c0,-1.59 -0.8,-2.39 -2.38,-2.39l-150.46 0c-1.6,0 -2.39,0.8 -2.39,2.39l0 70.63zm484.81 -70.29l0 66.19c0,12.97 -4.67,24.11 -14,33.44 -9.32,9.32 -20.58,13.98 -33.77,13.98l-13.31 0 61.08 72.68 0 11.59 -49.13 0 -70.97 -84.27 -79.49 0 -1.02 0 0 84.27 -45.04 0 0 -245.3 197.88 0c13.19,0 24.45,4.66 33.77,13.99 9.33,9.32 14,20.47 14,33.43zm-198.22 68.58l150.45 0c1.59,0 2.39,-0.79 2.39,-2.39l0 -66.19c0,-1.58 -0.8,-2.39 -2.39,-2.39l-150.45 0c-1.6,0 -2.39,0.81 -2.39,2.39l0 66.19c0,1.6 0.79,2.39 2.39,2.39zm234.72 129.3l0 -245.64 45.03 0 0 245.64 -45.03 0zm122.82 -245.64l150.46 0c13.19,0 24.45,4.6 33.78,13.82 9.32,9.21 13.98,20.41 13.98,33.6l0 198.22 -45.37 0 0 -82.56 -155.24 0 0 82.56 -45.03 0 0 -198.22c0,-13.19 4.6,-24.39 13.82,-33.6 9.21,-9.22 20.41,-13.82 33.6,-13.82zm-2.39 118.05l155.24 0 0 -70.63c0,-1.59 -0.8,-2.39 -2.39,-2.39l-150.46 0c-1.59,0 -2.39,0.8 -2.39,2.39l0 70.63z"/>
  </g>
 </g>
</svg>
