<?xml version="1.0" encoding="UTF-8"?>
<!DOCTYPE svg PUBLIC "-//W3C//DTD SVG 1.1//EN" "http://www.w3.org/Graphics/SVG/1.1/DTD/svg11.dtd">
<!-- Creator: CorelDRAW 2020 (64-Bit) -->
<svg xmlns="http://www.w3.org/2000/svg" xml:space="preserve" width="33mm" height="13mm" version="1.1" style="shape-rendering:geometricPrecision; text-rendering:geometricPrecision; image-rendering:optimizeQuality; fill-rule:evenodd; clip-rule:evenodd"
viewBox="0 0 3300 1300"
 xmlns:xlink="http://www.w3.org/1999/xlink"
 xmlns:xodm="http://www.corel.com/coreldraw/odm/2003">
 <defs>
  <style type="text/css">
   <![CDATA[
    .fil0 {fill:#282829;fill-rule:nonzero}
   ]]>
  </style>
 </defs>
 <g id="Capa_x0020_1">
  <metadata id="CorelCorpID_0Corel-Layer"/>
  <g id="_1554910666400">
   <path class="fil0" d="M985.01 261.21l-663.06 0c-5.34,0 -8.02,2.67 -8.02,8.01l0 506.18c0,5.34 2.68,8.01 8.02,8.01l663.06 0 0 151.17 -663.06 0c-44.28,0 -81.88,-15.46 -112.8,-46.38 -30.92,-30.92 -46.38,-68.53 -46.38,-112.8l0 -506.18c0,-44.27 15.46,-81.88 46.38,-112.79 30.92,-30.93 68.52,-46.39 112.8,-46.39l663.06 0 0 151.17zm789.03 514.19l0 -665.36 152.31 0 0 665.36c0,44.27 -15.65,81.88 -46.95,112.8 -31.3,30.92 -68.71,46.38 -112.23,46.38l-506.17 0c-44.28,0 -81.88,-15.46 -112.8,-46.38 -30.92,-30.92 -46.38,-68.53 -46.38,-112.8l0 -665.36 151.16 0 0 665.36c0,5.34 2.68,8.01 8.02,8.01l506.17 0c4.59,0 6.87,-2.67 6.87,-8.01zm279.43 159.18l0 -824.54 151.17 0 0 824.54 -151.17 0zm1069.61 -665.36l0 62.99 -152.32 0 0 -62.99c0,-5.34 -2.29,-8.01 -6.86,-8.01l-506.18 0c-5.34,0 -8.01,2.67 -8.01,8.01l0 169.49c0,5.35 2.67,8.02 8.01,8.02l506.18 0c43.51,0 80.92,15.46 112.22,46.38 31.3,30.92 46.96,68.52 46.96,112.8l0 169.49c0,44.27 -15.66,81.88 -46.96,112.8 -31.3,30.92 -68.71,46.38 -112.22,46.38l-506.18 0c-44.27,0 -81.88,-15.46 -112.8,-46.38 -30.92,-30.92 -46.38,-68.53 -46.38,-112.8l0 -62.99 151.17 0 0 62.99c0,5.34 2.67,8.01 8.01,8.01l506.18 0c4.57,0 6.86,-2.67 6.86,-8.01l0 -169.49c0,-5.35 -2.29,-8.02 -6.86,-8.02l-506.18 0c-44.27,0 -81.88,-15.46 -112.8,-46.38 -30.92,-30.92 -46.38,-68.52 -46.38,-112.8l0 -169.49c0,-44.27 15.46,-81.88 46.38,-112.79 30.92,-30.93 68.53,-46.39 112.8,-46.39l506.18 0c43.51,0 80.92,15.46 112.22,46.39 31.3,30.91 46.96,68.52 46.96,112.79z"/>
   <path class="fil0" d="M266.84 1155.77l70.13 -121.96 33.32 0 -90.6 156.8 -25.91 0 -90.6 -156.8 33.32 0 70.34 121.96zm119.56 34.84l0 -156.8 28.75 0 0 156.8 -28.75 0zm203.41 -126.53l0 11.98 -28.97 0 0 -11.98c0,-1.02 -0.43,-1.52 -1.3,-1.52l-96.26 0c-1.02,0 -1.52,0.5 -1.52,1.52l0 32.23c0,1.02 0.5,1.53 1.52,1.53l96.26 0c8.27,0 15.39,2.93 21.34,8.81 5.95,5.88 8.93,13.04 8.93,21.45l0 32.24c0,8.42 -2.98,15.57 -8.93,21.45 -5.95,5.88 -13.07,8.82 -21.34,8.82l-96.26 0c-8.42,0 -15.57,-2.94 -21.45,-8.82 -5.88,-5.88 -8.82,-13.03 -8.82,-21.45l0 -11.98 28.75 0 0 11.98c0,1.01 0.5,1.52 1.52,1.52l96.26 0c0.87,0 1.3,-0.51 1.3,-1.52l0 -32.24c0,-1.01 -0.43,-1.52 -1.3,-1.52l-96.26 0c-8.42,0 -15.57,-2.94 -21.45,-8.81 -5.88,-5.89 -8.82,-13.04 -8.82,-21.46l0 -32.23c0,-8.42 2.94,-15.57 8.82,-21.45 5.88,-5.88 13.03,-8.82 21.45,-8.82l96.26 0c8.27,0 15.39,2.94 21.34,8.82 5.95,5.88 8.93,13.03 8.93,21.45zm15.46 -30.27l156.8 0 0 28.75 -63.8 0 0 128.05 -28.97 0 0 -128.05 -64.03 0 0 -28.75zm173.35 156.8l0 -156.8 28.75 0 0 156.8 -28.75 0zm192.3 -156.8l0 28.75 -115.2 0 0 35.28 92.77 0 0 28.74 -92.77 0 0 35.28 115.2 0 0 28.75 -144.17 0 0 -156.8 144.17 0zm150.06 114.98l0 -114.98 28.96 0 0 156.8 -31.36 0 -96.69 -114.98 0 114.98 -28.75 0 0 -156.8 31.36 0 96.48 114.98zm53.79 -114.98l126.31 0c8.42,0 15.61,2.94 21.56,8.82 5.95,5.88 8.93,13.03 8.93,21.45l0 96.26c0,8.42 -2.98,15.57 -8.93,21.45 -5.95,5.88 -13.14,8.82 -21.56,8.82l-126.31 0 0 -156.8zm127.83 126.53l0 -96.26c0,-1.02 -0.51,-1.52 -1.52,-1.52l-96.04 0c-1.02,0 -1.53,0.5 -1.53,1.52l0 96.26c0,1.01 0.51,1.52 1.53,1.52l96.04 0c1.01,0 1.52,-0.51 1.52,-1.52zm83.19 -126.53l96.26 0c8.28,0 15.39,2.94 21.35,8.82 5.95,5.88 8.92,13.03 8.92,21.45l0 96.26c0,8.42 -2.97,15.57 -8.92,21.45 -5.96,5.88 -13.07,8.82 -21.35,8.82l-96.26 0c-8.42,0 -15.57,-2.94 -21.45,-8.82 -5.88,-5.88 -8.82,-13.03 -8.82,-21.45l0 -96.26c0,-8.42 2.94,-15.57 8.82,-21.45 5.88,-5.88 13.03,-8.82 21.45,-8.82zm0 128.05l96.26 0c0.87,0 1.31,-0.51 1.31,-1.52l0 -96.26c0,-1.02 -0.44,-1.52 -1.31,-1.52l-96.26 0c-1.01,0 -1.52,0.5 -1.52,1.52l0 96.26c0,1.01 0.51,1.52 1.52,1.52zm373.93 -99.3l-126.1 0c-1.01,0 -1.52,0.5 -1.52,1.52l0 96.26c0,1.01 0.51,1.52 1.52,1.52l126.1 0 0 28.75 -126.1 0c-8.42,0 -15.57,-2.94 -21.45,-8.82 -5.88,-5.88 -8.81,-13.03 -8.81,-21.45l0 -96.26c0,-8.42 2.93,-15.57 8.81,-21.45 5.88,-5.88 13.03,-8.82 21.45,-8.82l126.1 0 0 28.75zm52.49 -28.75l96.25 0c8.28,0 15.4,2.94 21.35,8.82 5.95,5.88 8.93,13.03 8.93,21.45l0 96.26c0,8.42 -2.98,15.57 -8.93,21.45 -5.95,5.88 -13.07,8.82 -21.35,8.82l-96.25 0c-8.43,0 -15.57,-2.94 -21.45,-8.82 -5.89,-5.88 -8.82,-13.03 -8.82,-21.45l0 -96.26c0,-8.42 2.93,-15.57 8.82,-21.45 5.88,-5.88 13.02,-8.82 21.45,-8.82zm0 128.05l96.25 0c0.87,0 1.31,-0.51 1.31,-1.52l0 -96.26c0,-1.02 -0.44,-1.52 -1.31,-1.52l-96.25 0c-1.02,0 -1.53,0.5 -1.53,1.52l0 96.26c0,1.01 0.51,1.52 1.53,1.52zm278.32 -13.07l0 -114.98 28.96 0 0 156.8 -31.36 0 -96.69 -114.98 0 114.98 -28.74 0 0 -156.8 31.36 0 96.47 114.98zm209.72 -86.23l-126.09 0c-1.02,0 -1.52,0.5 -1.52,1.52l0 96.26c0,1.01 0.5,1.52 1.52,1.52l126.09 0 0 28.75 -126.09 0c-8.42,0 -15.57,-2.94 -21.45,-8.82 -5.88,-5.88 -8.82,-13.03 -8.82,-21.45l0 -96.26c0,-8.42 2.94,-15.57 8.82,-21.45 5.88,-5.88 13.03,-8.82 21.45,-8.82l126.09 0 0 28.75zm22.87 128.05l0 -156.8 28.75 0 0 156.8 -28.75 0zm192.3 -156.8l0 28.75 -115.21 0 0 35.28 92.78 0 0 28.74 -92.78 0 0 35.28 115.21 0 0 28.75 -144.17 0 0 -156.8 144.17 0zm150.05 114.98l0 -114.98 28.96 0 0 156.8 -31.36 0 -96.69 -114.98 0 114.98 -28.74 0 0 -156.8 31.35 0 96.48 114.98zm209.72 -86.23l-126.09 0c-1.02,0 -1.52,0.5 -1.52,1.52l0 96.26c0,1.01 0.5,1.52 1.52,1.52l126.09 0 0 28.75 -126.09 0c-8.43,0 -15.57,-2.94 -21.45,-8.82 -5.88,-5.88 -8.82,-13.03 -8.82,-21.45l0 -96.26c0,-8.42 2.94,-15.57 8.82,-21.45 5.88,-5.88 13.02,-8.82 21.45,-8.82l126.09 0 0 28.75zm22.87 128.05l0 -156.8 28.75 0 0 156.8 -28.75 0zm78.4 -156.8l96.04 0c8.42,0 15.61,2.94 21.56,8.82 5.95,5.88 8.93,13.03 8.93,21.45l0 126.53 -28.96 0 0 -52.7 -99.09 0 0 52.7 -28.75 0 0 -126.53c0,-8.42 2.94,-15.57 8.82,-21.45 5.88,-5.88 13.03,-8.82 21.45,-8.82zm-1.52 75.35l99.09 0 0 -45.08c0,-1.02 -0.52,-1.52 -1.53,-1.52l-96.04 0c-1.01,0 -1.52,0.5 -1.52,1.52l0 45.08z"/>
  </g>
 </g>
</svg>
