<?xml version="1.0" encoding="UTF-8"?>
<!DOCTYPE svg PUBLIC "-//W3C//DTD SVG 1.1//EN" "http://www.w3.org/Graphics/SVG/1.1/DTD/svg11.dtd">
<!-- Creator: CorelDRAW 2020 (64-Bit) -->
<svg xmlns="http://www.w3.org/2000/svg" xml:space="preserve" width="38mm" height="16mm" version="1.1" style="shape-rendering:geometricPrecision; text-rendering:geometricPrecision; image-rendering:optimizeQuality; fill-rule:evenodd; clip-rule:evenodd"
viewBox="0 0 3800 1600"
 xmlns:xlink="http://www.w3.org/1999/xlink"
 xmlns:xodm="http://www.corel.com/coreldraw/odm/2003">
 <defs>
  <style type="text/css">
   <![CDATA[
    .fil1 {fill:#FEFEFE}
    .fil0 {fill:#2E539E}
   ]]>
  </style>
 </defs>
 <g id="Capa_x0020_1">
  <metadata id="CorelCorpID_0Corel-Layer"/>
  <g id="_1775275465328">
   <polygon class="fil0" points="58.08,1218.77 3479.09,1218.87 3468.46,1218.78 3731.9,110.43 364.91,109.79 "/>
   <path class="fil1" d="M96.98 1188.46l3349.91 0.13c3.76,-5.97 240.33,-982.45 249.84,-1047.32l-3301.92 -1.27 -297.83 1048.46z"/>
   <polygon class="fil0" points="297.71,1066.15 3312.43,1066.25 3518,264.1 502.88,263.8 "/>
   <path class="fil1" d="M2868.62 764.19c-3.76,50.07 -129.91,67.17 -161.66,9.36l-232.34 -0.22c17.5,103.44 108.39,155.65 218.84,170.28 149.89,19.84 365.66,3.85 403.5,-166.16 43.79,-196.75 -345.42,-146.67 -394.29,-184.27 9.64,-41.17 80.17,-53.74 124.49,-38.1 26.07,9.21 22.37,16.33 36.05,25.75 14.11,9.71 200.75,4.43 233.39,4.43 -4.5,-48.05 -40.36,-94.07 -74.87,-119.22 -111.89,-81.55 -373.76,-71.88 -470.45,-1.5 -73.98,53.85 -126.69,182.41 -11.33,239.55 111.1,55.03 298.67,24.43 328.67,60.1z"/>
   <path class="fil1" d="M2078.67 421.46l-217.26 -1.18c0,84.59 0.47,168.84 0.02,252.93 -0.45,85.86 -27.63,137.96 -116.82,136.91 -88.86,-1.06 -112.26,-55.33 -112.37,-140.55 -0.07,-46.99 6.16,-216.38 -2.01,-249.3l-214.18 0.07c-7.11,51.89 -1.02,155.98 -1.03,212.83 0,68.78 -0.21,128.66 28.09,185.1 49.09,97.9 157.14,130.58 301.51,130.86 140.61,0.27 250.93,-29.58 303.39,-125.38 45.6,-83.27 30.66,-292.59 30.66,-402.29z"/>
   <path class="fil1" d="M1352.94 749.87l-228.32 0c-25.22,48.21 -90.98,70.88 -165.3,57.18 -141.26,-26.02 -142,-227.49 -1.58,-254.94 31.88,-6.23 75.11,-5.07 104.98,5.87 51.01,18.68 54.92,47.54 66.85,50.73l223.37 0c-31.28,-172.64 -243.99,-205.49 -394.49,-197.81 -181.82,9.27 -322.7,81.91 -322.12,269.58 0.96,315.05 430.56,296.36 578.74,230.96 61.33,-27.06 125.32,-84.03 137.87,-161.57z"/>
   <polygon class="fil1" points="2166.8,938.88 2385.16,938.88 2385.16,418.45 2166.8,418.45 "/>
  </g>
 </g>
</svg>
